<svg width="170" height="16" viewBox="0 0 170 16" fill="none" xmlns="http://www.w3.org/2000/svg">
<path d="M0.000160886 2.2983C0.000160202 -4.92221 6.3428 11.7121 14.1668 11.7121C21.9909 11.7121 28.3335 -4.92221 28.3335 2.2983C28.3335 9.51881 21.9909 15.3722 14.1668 15.3722C6.3428 15.3722 0.00016157 9.51881 0.000160886 2.2983Z" fill="#379634"/>
<path d="M56.6668 13.5556C56.6668 20.7761 50.3242 4.14181 42.5002 4.14181C34.6761 4.14181 28.3335 20.7761 28.3335 13.5556C28.3335 6.33507 34.6761 0.481689 42.5002 0.481689C50.3242 0.481689 56.6668 6.33507 56.6668 13.5556Z" fill="#379634"/>
<path d="M56.6667 2.2983C56.6667 -4.92221 63.0093 11.7121 70.8333 11.7121C78.6574 11.7121 85 -4.92221 85 2.2983C85 9.51881 78.6574 15.3722 70.8333 15.3722C63.0093 15.3722 56.6667 9.51881 56.6667 2.2983Z" fill="#379634"/>
<path d="M113.333 13.5556C113.333 20.7761 106.991 4.14181 99.1667 4.14181C91.3426 4.14181 85 20.7761 85 13.5556C85 6.33507 91.3426 0.481689 99.1667 0.481689C106.991 0.481689 113.333 6.33507 113.333 13.5556Z" fill="#379634"/>
<path d="M113.333 2.2983C113.333 -4.92221 119.676 11.7121 127.5 11.7121C135.324 11.7121 141.667 -4.92221 141.667 2.2983C141.667 9.51881 135.324 15.3722 127.5 15.3722C119.676 15.3722 113.333 9.51881 113.333 2.2983Z" fill="#379634"/>
<path d="M170 13.5556C170 20.7761 163.657 4.14181 155.833 4.14181C148.009 4.14181 141.667 20.7761 141.667 13.5556C141.667 6.33507 148.009 0.481689 155.833 0.481689C163.657 0.481689 170 6.33507 170 13.5556Z" fill="#379634"/>
</svg>
