<svg width="600" height="30" viewBox="0 0 600 30" fill="none" xmlns="http://www.w3.org/2000/svg">
<path d="M50 25.7632C50 39.5703 38.8071 7.7621 25 7.7621C11.1929 7.7621 0 39.5703 0 25.7632C0 11.9561 11.1929 0.763184 25 0.763184C38.8071 0.763184 50 11.9561 50 25.7632Z" fill="#379634"/>
<path d="M50 4.23706C50 -9.57005 61.1929 22.2381 75 22.2381C88.8071 22.2381 100 -9.57006 100 4.23706C100 18.0442 88.8071 29.2371 75 29.2371C61.1929 29.2371 50 18.0442 50 4.23706Z" fill="#379634"/>
<path d="M150 25.7632C150 39.5703 138.807 7.7621 125 7.7621C111.193 7.7621 100 39.5703 100 25.7632C100 11.9561 111.193 0.763184 125 0.763184C138.807 0.763184 150 11.9561 150 25.7632Z" fill="#379634"/>
<path d="M150 4.23706C150 -9.57005 161.193 22.2381 175 22.2381C188.807 22.2381 200 -9.57006 200 4.23706C200 18.0442 188.807 29.2371 175 29.2371C161.193 29.2371 150 18.0442 150 4.23706Z" fill="#379634"/>
<path d="M250 25.7632C250 39.5703 238.807 7.7621 225 7.7621C211.193 7.7621 200 39.5703 200 25.7632C200 11.9561 211.193 0.763184 225 0.763184C238.807 0.763184 250 11.9561 250 25.7632Z" fill="#379634"/>
<path d="M250 4.23706C250 -9.57005 261.193 22.2381 275 22.2381C288.807 22.2381 300 -9.57006 300 4.23706C300 18.0442 288.807 29.2371 275 29.2371C261.193 29.2371 250 18.0442 250 4.23706Z" fill="#379634"/>
<path d="M350 25.7632C350 39.5703 338.807 7.7621 325 7.7621C311.193 7.7621 300 39.5703 300 25.7632C300 11.9561 311.193 0.763184 325 0.763184C338.807 0.763184 350 11.9561 350 25.7632Z" fill="#379634"/>
<path d="M350 4.23706C350 -9.57005 361.193 22.2381 375 22.2381C388.807 22.2381 400 -9.57006 400 4.23706C400 18.0442 388.807 29.2371 375 29.2371C361.193 29.2371 350 18.0442 350 4.23706Z" fill="#379634"/>
<path d="M450 25.7632C450 39.5703 438.807 7.7621 425 7.7621C411.193 7.7621 400 39.5703 400 25.7632C400 11.9561 411.193 0.763184 425 0.763184C438.807 0.763184 450 11.9561 450 25.7632Z" fill="#379634"/>
<path d="M450 4.23706C450 -9.57005 461.193 22.2381 475 22.2381C488.807 22.2381 500 -9.57006 500 4.23706C500 18.0442 488.807 29.2371 475 29.2371C461.193 29.2371 450 18.0442 450 4.23706Z" fill="#379634"/>
<path d="M550 25.7632C550 39.5703 538.807 7.7621 525 7.7621C511.193 7.7621 500 39.5703 500 25.7632C500 11.9561 511.193 0.763184 525 0.763184C538.807 0.763184 550 11.9561 550 25.7632Z" fill="#379634"/>
<path d="M550 4.23706C550 -9.57005 561.193 22.2381 575 22.2381C588.807 22.2381 600 -9.57006 600 4.23706C600 18.0442 588.807 29.2371 575 29.2371C561.193 29.2371 550 18.0442 550 4.23706Z" fill="#379634"/>
</svg>
