<svg width="136" height="27" viewBox="0 0 136 27" fill="none" xmlns="http://www.w3.org/2000/svg">
<path d="M45.5 23.2026C45.5 35.629 35.4264 7.00166 23 7.00166C10.5736 7.00166 0.5 35.629 0.5 23.2026C0.5 10.7762 10.5736 0.702637 23 0.702637C35.4264 0.702637 45.5 10.7762 45.5 23.2026Z" fill="#1C110A"/>
<path d="M45.5 3.82904C45.5 -8.59736 55.5736 20.03 68 20.03C80.4264 20.03 90.5 -8.59737 90.5 3.82904C90.5 16.2554 80.4264 26.329 68 26.329C55.5736 26.329 45.5 16.2555 45.5 3.82904Z" fill="#1C110A"/>
<path d="M135.5 23.2026C135.5 35.629 125.426 7.00166 113 7.00166C100.574 7.00166 90.5 35.629 90.5 23.2026C90.5 10.7762 100.574 0.702637 113 0.702637C125.426 0.702637 135.5 10.7762 135.5 23.2026Z" fill="#1C110A"/>
</svg>
