<svg width="29" height="600" viewBox="0 0 29 600" fill="none" xmlns="http://www.w3.org/2000/svg">
<path d="M3.55273 50C-10.2544 50 21.5538 38.8071 21.5538 25C21.5538 11.1929 -10.2544 -1.69631e-06 3.55273 -1.09278e-06C17.3599 -4.89256e-07 28.5527 11.1929 28.5527 25C28.5527 38.8071 17.3599 50 3.55273 50Z" fill="#1C110A"/>
<path d="M25.0786 50C38.8857 50 7.07753 61.1929 7.07753 75C7.07753 88.8071 38.8857 100 25.0786 100C11.2715 100 0.0786128 88.8071 0.0786122 75C0.0786116 61.1929 11.2715 50 25.0786 50Z" fill="#1C110A"/>
<path d="M3.55273 150C-10.2544 150 21.5538 138.807 21.5538 125C21.5538 111.193 -10.2544 100 3.55273 100C17.3599 100 28.5527 111.193 28.5527 125C28.5527 138.807 17.3599 150 3.55273 150Z" fill="#1C110A"/>
<path d="M25.0786 150C38.8857 150 7.07753 161.193 7.07753 175C7.07753 188.807 38.8857 200 25.0786 200C11.2715 200 0.0786128 188.807 0.0786122 175C0.0786116 161.193 11.2715 150 25.0786 150Z" fill="#1C110A"/>
<path d="M3.55273 250C-10.2544 250 21.5538 238.807 21.5538 225C21.5538 211.193 -10.2544 200 3.55273 200C17.3599 200 28.5527 211.193 28.5527 225C28.5527 238.807 17.3599 250 3.55273 250Z" fill="#1C110A"/>
<path d="M25.0786 250C38.8857 250 7.07753 261.193 7.07753 275C7.07753 288.807 38.8857 300 25.0786 300C11.2715 300 0.0786128 288.807 0.0786122 275C0.0786116 261.193 11.2715 250 25.0786 250Z" fill="#1C110A"/>
<path d="M3.55273 350C-10.2544 350 21.5538 338.807 21.5538 325C21.5538 311.193 -10.2544 300 3.55273 300C17.3599 300 28.5527 311.193 28.5527 325C28.5527 338.807 17.3599 350 3.55273 350Z" fill="#1C110A"/>
<path d="M25.0786 350C38.8857 350 7.07753 361.193 7.07753 375C7.07753 388.807 38.8857 400 25.0786 400C11.2715 400 0.0786128 388.807 0.0786122 375C0.0786116 361.193 11.2715 350 25.0786 350Z" fill="#1C110A"/>
<path d="M3.55273 450C-10.2544 450 21.5538 438.807 21.5538 425C21.5538 411.193 -10.2544 400 3.55273 400C17.3599 400 28.5527 411.193 28.5527 425C28.5527 438.807 17.3599 450 3.55273 450Z" fill="#1C110A"/>
<path d="M25.0786 450C38.8857 450 7.07753 461.193 7.07753 475C7.07753 488.807 38.8857 500 25.0786 500C11.2715 500 0.0786128 488.807 0.0786122 475C0.0786116 461.193 11.2715 450 25.0786 450Z" fill="#1C110A"/>
<path d="M3.55273 550C-10.2544 550 21.5538 538.807 21.5538 525C21.5538 511.193 -10.2544 500 3.55273 500C17.3599 500 28.5527 511.193 28.5527 525C28.5527 538.807 17.3599 550 3.55273 550Z" fill="#1C110A"/>
<path d="M25.0786 550C38.8857 550 7.07753 561.193 7.07753 575C7.07753 588.807 38.8857 600 25.0786 600C11.2715 600 0.0786128 588.807 0.0786122 575C0.0786116 561.193 11.2715 550 25.0786 550Z" fill="#1C110A"/>
</svg>
