<svg width="12" height="70" viewBox="0 0 12 70" fill="none" xmlns="http://www.w3.org/2000/svg">
<path d="M2.08887 23.7543C-2.92862 23.7543 8.63043 18.623 8.63043 12.2932C8.63043 5.96335 -2.92862 0.832031 2.08887 0.832031C7.10635 0.832031 11.1738 5.96335 11.1738 12.2932C11.1738 18.623 7.10635 23.7543 2.08887 23.7543Z" fill="#1C110A"/>
<path d="M9.91113 23.754C14.9286 23.754 3.36957 28.8853 3.36957 35.2151C3.36957 41.5449 14.9286 46.6763 9.91113 46.6763C4.89365 46.6763 0.826172 41.5449 0.826172 35.2151C0.826171 28.8853 4.89365 23.754 9.91113 23.754Z" fill="#1C110A"/>
<path d="M2.08887 69.5985C-2.92862 69.5985 8.63043 64.4672 8.63043 58.1374C8.63043 51.8076 -2.92862 46.6763 2.08887 46.6763C7.10635 46.6763 11.1738 51.8076 11.1738 58.1374C11.1738 64.4672 7.10635 69.5985 2.08887 69.5985Z" fill="#1C110A"/>
</svg>
