<svg width="40" height="20" viewBox="0 0 40 20" fill="none" xmlns="http://www.w3.org/2000/svg">
<path d="M34.4815 2.15374C34.4815 2.74377 34.0061 3.21795 33.4248 3.21795C32.8435 3.21795 32.3682 2.74377 32.3682 2.15374C32.3682 1.56372 32.8435 1.08954 33.4248 1.08954C34.0061 1.08954 34.4815 1.56372 34.4815 2.15374Z" fill="#1C110A" stroke="#1C110A"/>
<path d="M19.1748 4.17092C19.1748 4.76094 18.6995 5.23512 18.1182 5.23512C17.5369 5.23512 17.0615 4.76094 17.0615 4.17092C17.0615 3.58089 17.5369 3.10671 18.1182 3.10671C18.6995 3.10671 19.1748 3.58089 19.1748 4.17092Z" fill="#1C110A" stroke="#1C110A"/>
<path d="M28.6597 4.98498C28.6597 5.57501 28.1843 6.04918 27.603 6.04918C27.0217 6.04918 26.5464 5.57501 26.5464 4.98498C26.5464 4.39495 27.0217 3.92078 27.603 3.92078C28.1843 3.92078 28.6597 4.39495 28.6597 4.98498Z" fill="#1C110A" stroke="#1C110A"/>
<path d="M2.61331 14.7179C2.61331 15.3079 2.13795 15.7821 1.55665 15.7821C0.975358 15.7821 0.5 15.3079 0.5 14.7179C0.5 14.1278 0.975358 13.6537 1.55665 13.6537C2.13795 13.6537 2.61331 14.1278 2.61331 14.7179Z" fill="#1C110A" stroke="#1C110A"/>
<path d="M8.13333 17.8463C8.13333 18.4363 7.65797 18.9105 7.07667 18.9105C6.49538 18.9105 6.02002 18.4363 6.02002 17.8463C6.02002 17.2562 6.49538 16.7821 7.07667 16.7821C7.65797 16.7821 8.13333 17.2562 8.13333 17.8463Z" fill="#1C110A" stroke="#1C110A"/>
<path d="M24.1934 13.1537C24.1934 13.7437 23.718 14.2179 23.1367 14.2179C22.5554 14.2179 22.0801 13.7437 22.0801 13.1537C22.0801 12.5636 22.5554 12.0894 23.1367 12.0894C23.718 12.0894 24.1934 12.5636 24.1934 13.1537Z" fill="#1C110A" stroke="#1C110A"/>
<path d="M39.5 11.2373C39.5 11.8274 39.0247 12.3015 38.4434 12.3015C37.8621 12.3015 37.3867 11.8274 37.3867 11.2373C37.3867 10.6473 37.8621 10.1731 38.4434 10.1731C39.0247 10.1731 39.5 10.6473 39.5 11.2373Z" fill="#1C110A" stroke="#1C110A"/>
<path d="M18.2632 4.27402L19.9193 2.20642H33.5197" stroke="#1C110A" stroke-linecap="round"/>
<path d="M27.6986 4.98003H21.6261L11.9653 14.6877H1.75244M34.2228 7.90493H23.3324L13.5712 17.7135H7.22271M23.3324 13.0487L25.1893 11.1828H38.589" stroke="#1C110A" stroke-linecap="round"/>
</svg>
